<?xml version="1.0" encoding="UTF-8" standalone="no"?>
<!-- Created with Inkscape (http://www.inkscape.org/) -->

<svg
   xmlns:dc="http://purl.org/dc/elements/1.1/"
   xmlns:cc="http://creativecommons.org/ns#"
   xmlns:rdf="http://www.w3.org/1999/02/22-rdf-syntax-ns#"
   xmlns:svg="http://www.w3.org/2000/svg"
   xmlns="http://www.w3.org/2000/svg"
   xmlns:sodipodi="http://sodipodi.sourceforge.net/DTD/sodipodi-0.dtd"
   xmlns:inkscape="http://www.inkscape.org/namespaces/inkscape"
   width="64.119331mm"
   height="59.476955mm"
   viewBox="0 0 64.119331 59.476955"
   version="1.1"
   id="svg8"
   inkscape:version="0.92.4 (5da689c313, 2019-01-14)"
   sodipodi:docname="arnia.svg">
  <defs
     id="defs2" />
  <sodipodi:namedview
     id="base"
     pagecolor="#ffffff"
     bordercolor="#666666"
     borderopacity="1.0"
     inkscape:pageopacity="0.0"
     inkscape:pageshadow="2"
     inkscape:zoom="1.979899"
     inkscape:cx="-1.2715572"
     inkscape:cy="21.853874"
     inkscape:document-units="mm"
     inkscape:current-layer="layer1"
     showgrid="false"
     inkscape:window-width="1680"
     inkscape:window-height="1027"
     inkscape:window-x="-8"
     inkscape:window-y="-8"
     inkscape:window-maximized="1"
     fit-margin-top="1"
     fit-margin-left="1"
     fit-margin-right="1"
     fit-margin-bottom="1" />
  <metadata
     id="metadata5">
    <rdf:RDF>
      <cc:Work
         rdf:about="">
        <dc:format>image/svg+xml</dc:format>
        <dc:type
           rdf:resource="http://purl.org/dc/dcmitype/StillImage" />
        <dc:title></dc:title>
      </cc:Work>
    </rdf:RDF>
  </metadata>
  <g
     inkscape:label="Livello 1"
     inkscape:groupmode="layer"
     id="layer1"
     transform="translate(-22.292763,-53.468499)">
    <path
       sodipodi:type="star"
       style="fill:#ffa600;fill-opacity:1;stroke:none;stroke-width:0.03;stroke-miterlimit:0;stroke-dasharray:none;stroke-opacity:1"
       id="path3737"
       sodipodi:sides="6"
       sodipodi:cx="72.430038"
       sodipodi:cy="103.36322"
       sodipodi:r1="27.528761"
       sodipodi:r2="23.840607"
       sodipodi:arg1="0"
       sodipodi:arg2="0.52359878"
       inkscape:flatsided="true"
       inkscape:rounded="0.11"
       inkscape:randomized="0"
       d="m 99.958799,103.36322 c 0,3.02816 -11.141913,22.32652 -13.76438,23.84061 -2.622467,1.51408 -24.906294,1.51408 -27.528761,0 -2.622467,-1.51409 -13.76438,-20.81245 -13.76438,-23.84061 0,-3.02816 11.141913,-22.326524 13.76438,-23.840606 2.622467,-1.514082 24.906294,-1.514082 27.528761,0 2.622467,1.514082 13.76438,20.812446 13.76438,23.840606 z"
       transform="matrix(1.1276848,0.1549508,-0.15177618,1.1045809,-11.637751,-42.189155)" />
    <g
       id="g6699"
       transform="translate(-31.671439,1.4699824)">
      <g
         id="g6711"
         transform="matrix(0.99906664,0,0,1.0494856,-37.139124,-50.68298)">
        <rect
           style="fill:none;fill-opacity:1;stroke:#3f281e;stroke-width:1.39999998;stroke-linecap:round;stroke-linejoin:round;stroke-miterlimit:4;stroke-dasharray:none;stroke-opacity:1"
           id="rect4849"
           width="35.947754"
           height="5.3453903"
           x="105.30418"
           y="110.31223" />
        <g
           id="g4909"
           transform="translate(3.5413218)"
           style="stroke-width:1.39999998;stroke-miterlimit:4;stroke-dasharray:none">
          <rect
             y="115.67689"
             x="105.32344"
             height="7.7122898"
             width="28.826582"
             id="rect4851"
             style="fill:none;fill-opacity:1;stroke:#3f281e;stroke-width:1.39999998;stroke-linecap:round;stroke-linejoin:round;stroke-miterlimit:4;stroke-dasharray:none;stroke-opacity:1;paint-order:stroke fill markers" />
          <rect
             y="123.38918"
             x="105.32344"
             height="7.7122898"
             width="28.826582"
             id="rect4851-3"
             style="fill:none;fill-opacity:1;stroke:#3f281e;stroke-width:1.39999998;stroke-linecap:round;stroke-linejoin:round;stroke-miterlimit:4;stroke-dasharray:none;stroke-opacity:1;paint-order:stroke fill markers" />
          <rect
             y="131.10147"
             x="105.32344"
             height="7.7122898"
             width="28.826582"
             id="rect4851-31"
             style="fill:none;fill-opacity:1;stroke:#3f281e;stroke-width:1.39999998;stroke-linecap:round;stroke-linejoin:round;stroke-miterlimit:4;stroke-dasharray:none;stroke-opacity:1;paint-order:stroke fill markers" />
        </g>
        <rect
           style="fill:none;fill-opacity:1;stroke:#3f281e;stroke-width:1.39999998;stroke-linecap:round;stroke-linejoin:round;stroke-miterlimit:4;stroke-dasharray:none;stroke-opacity:1;paint-order:stroke fill markers"
           id="rect4889-1"
           width="3.8943248"
           height="3.2261503"
           x="131.68039"
           y="138.81377" />
        <rect
           style="fill:none;fill-opacity:1;stroke:#3f281e;stroke-width:1.39999998;stroke-linecap:round;stroke-linejoin:round;stroke-miterlimit:4;stroke-dasharray:none;stroke-opacity:1;paint-order:stroke fill markers"
           id="rect4889-1-6"
           width="3.8943248"
           height="3.2261503"
           x="110.98144"
           y="138.81377" />
      </g>
    </g>
    <g
       id="g6754"
       transform="matrix(0.26458333,0,0,0.26458333,25.890973,105.35675)">
      <path
         id="path6744"
         d="m 205.01926,-77.419938 c -1.19128,-1.219981 -3.63239,-1.675824 -5.65957,-0.619463 -0.10162,-0.128026 -0.20553,-0.246293 -0.31174,-0.351929 -0.1131,-0.113099 -0.23366,-0.214143 -0.35882,-0.309445 1.04086,-2.050717 0.47077,-4.608946 -0.86001,-5.909303 -1.17406,-1.146496 -2.76376,-1.213667 -4.14909,-0.175103 -0.38006,0.285332 -0.45756,0.825568 -0.17223,1.206203 0.2859,0.380634 0.82557,0.45699 1.2062,0.172232 0.71592,-0.538514 1.34169,-0.527606 1.91121,0.02928 0.86805,0.847959 1.19817,2.650661 0.47077,3.982019 -0.28304,-0.05282 -0.581,-0.08152 -0.89561,-0.08152 -1.37844,0 -2.75228,0.514976 -3.57268,0.823272 l -0.17223,0.0643 c -0.74003,0.274425 -1.44733,0.562627 -2.12593,0.864609 -1.78318,-0.466177 -3.69841,-0.804901 -5.41442,-0.804901 -2.18621,0 -3.80003,0.543681 -4.79725,1.616117 -0.84222,0.905943 -1.21252,2.144871 -1.10057,3.684057 0.1131,1.547797 0.75897,2.662143 1.86758,3.283329 -0.19922,0.359966 -0.38638,0.725099 -0.54828,1.098844 -1.99101,4.600335 -0.38006,8.527815 -0.31059,8.693732 l 0.13319,0.316908 0.31519,0.137787 c 0.0718,0.031 1.78261,0.765861 4.26505,0.765861 1.75161,0 3.76731,-0.352503 5.82204,-1.426661 0.0103,0.02067 0.0172,0.04306 0.0281,0.06373 0.42542,0.827291 1.3526,1.845186 3.35223,1.99101 0.18084,0.01263 0.35594,0.01952 0.5253,0.01952 1.75448,0 3.10479,-0.709025 3.90509,-2.050143 1.33251,-2.233858 0.92834,-5.90873 0.10507,-9.116276 0.40532,-0.849108 0.79743,-1.760793 1.17233,-2.745389 0.70385,-1.848631 0.74347,-3.243716 0.47421,-4.289743 1.32734,-0.714765 2.93312,-0.475362 3.66396,0.272128 0.46733,0.478233 0.43575,1.079899 -0.0953,1.786627 -0.28533,0.380634 -0.20783,0.920871 0.17223,1.206203 0.15559,0.11597 0.33643,0.172233 0.51613,0.172233 0.26179,0 0.52014,-0.118841 0.6895,-0.344466 1.24237,-1.658026 0.78825,-3.16621 -0.0511,-4.025652 z m -8.12594,16.200781 c -0.54713,0.918 -1.44963,1.296912 -2.82577,1.195295 -1.3038,-0.09473 -1.73495,-0.65104 -1.94622,-1.060953 -0.0293,-0.05684 -0.0454,-0.124582 -0.0706,-0.184864 -0.22677,-0.545977 -0.2882,-1.234908 -0.22275,-2.018567 0.0448,-0.541384 0.14352,-1.121809 0.29279,-1.73266 0.2394,-0.977708 0.59535,-2.019716 1.00584,-3.053686 0.306,-0.76988 0.64071,-1.532871 0.9846,-2.262563 0.46445,-0.985745 0.94039,-1.908339 1.36982,-2.690275 l 0.0465,0.0465 c 0.64702,1.594875 1.3239,3.766155 1.69707,5.877727 0.41049,2.322845 0.45297,4.569334 -0.33126,5.884043 z M 180.7356,-73.355246 c -0.0769,-1.056935 0.13319,-1.837149 0.64357,-2.385997 0.65851,-0.707876 1.84863,-1.066694 3.53651,-1.066694 0.93752,0 1.9514,0.114821 2.97159,0.299684 2.13339,0.387524 4.2886,1.08564 5.81458,1.702233 l 0.0322,0.03215 c -0.71477,0.391542 -1.6477,0.879535 -2.68855,1.371546 -0.7142,0.33815 -1.47891,0.6763 -2.26085,0.986893 -1.01961,0.405895 -2.06507,0.758398 -3.06057,0.998376 -0.67286,0.161898 -1.32045,0.269257 -1.92269,0.303703 -0.13607,0.008 -0.275,0.0178 -0.4059,0.0178 -0.65793,0 -1.18036,-0.09588 -1.58281,-0.299111 -0.66769,-0.337576 -1.0047,-0.971967 -1.07703,-1.960582 z m 11.60331,1.245816 0.47364,0.47364 c -0.33987,0.693524 -0.68606,1.447329 -1.01502,2.23271 l -1.6919,-1.691899 c 0.78481,-0.329539 1.54033,-0.676301 2.23328,-1.014451 z m -5.21291,2.093776 3.59794,3.598515 c -0.2681,0.913981 -0.47134,1.821073 -0.56779,2.679366 l -5.70262,-5.70205 c 0.8514,-0.09875 1.7562,-0.303704 2.67247,-0.575831 z m -1.255,9.300565 -4.70654,-4.706546 c 0.10391,-0.802604 0.31633,-1.668934 0.68319,-2.564544 l 6.6522,6.6522 c -0.90882,0.339873 -1.79352,0.532199 -2.62885,0.61889 z m 12.16939,-12.096476 c -0.10679,0.279591 -0.21472,0.551719 -0.3238,0.818679 -0.45182,-1.322747 -0.91455,-2.421591 -1.25041,-3.093299 -0.0425,-0.16075 -0.1286,-0.304852 -0.25146,-0.417377 -0.11195,-0.122859 -0.25777,-0.208976 -0.4191,-0.250886 -0.68204,-0.345039 -1.67869,-0.765287 -2.85562,-1.176349 0.039,-0.01435 0.0764,-0.03043 0.1154,-0.04478 l 0.17797,-0.0666 c 0.71133,-0.266961 1.90145,-0.713043 2.96757,-0.713043 0.70501,0 1.23778,0.19003 1.62933,0.581572 0.89848,0.899055 0.96967,2.366477 0.21012,4.36208 z"
         inkscape:connector-curvature="0"
         style="fill:#3f281e;fill-opacity:1;stroke-width:0.57410896" />
    </g>
    <path
       id="path6744-5"
       d="m 34.203923,77.448245 c -0.315192,-0.322787 -0.961069,-0.443395 -1.497427,-0.1639 -0.02689,-0.03387 -0.05438,-0.06516 -0.08248,-0.09311 -0.02992,-0.02992 -0.06182,-0.05666 -0.09494,-0.08187 0.275394,-0.542586 0.124557,-1.21945 -0.227545,-1.563503 -0.310636,-0.303344 -0.731245,-0.321116 -1.09778,-0.04633 -0.100557,0.0755 -0.121063,0.218432 -0.04557,0.319142 0.07564,0.100709 0.218432,0.120912 0.319141,0.04557 0.18942,-0.142481 0.354988,-0.139595 0.505674,0.0077 0.229672,0.224356 0.317016,0.701321 0.124558,1.053576 -0.07489,-0.01398 -0.153723,-0.02157 -0.236964,-0.02157 -0.364712,0 -0.728207,0.136254 -0.945271,0.217824 l -0.04557,0.01701 c -0.1958,0.07265 -0.38294,0.148904 -0.562486,0.228803 -0.4718,-0.123342 -0.978538,-0.212963 -1.432565,-0.212963 -0.578435,0 -1.005425,0.143849 -1.269273,0.427598 -0.222837,0.239697 -0.320812,0.567497 -0.291192,0.97474 0.02992,0.409521 0.20081,0.704358 0.49413,0.868714 -0.05271,0.09524 -0.10223,0.191849 -0.145066,0.290736 -0.526788,1.217172 -0.100557,2.256317 -0.08218,2.300216 l 0.03524,0.08385 0.08339,0.03646 c 0.019,0.0082 0.471649,0.202634 1.128462,0.202634 0.463446,0 0.996767,-0.09327 1.540414,-0.37747 0.0027,0.0055 0.0045,0.01139 0.0074,0.01686 0.112559,0.218887 0.357876,0.488205 0.886945,0.526788 0.04785,0.0033 0.09418,0.0052 0.138985,0.0052 0.464206,0 0.821476,-0.187597 1.033222,-0.542434 0.352565,-0.591037 0.245628,-1.563347 0.02781,-2.41201 0.107241,-0.22466 0.210987,-0.465877 0.310179,-0.726385 0.186227,-0.489117 0.19671,-0.858233 0.125468,-1.134994 0.351192,-0.189115 0.776055,-0.125773 0.969423,0.072 0.123648,0.126533 0.115292,0.285724 -0.02521,0.472712 -0.07549,0.10071 -0.05499,0.243647 0.04557,0.319141 0.04117,0.03068 0.08901,0.04557 0.13656,0.04557 0.06926,0 0.13762,-0.03144 0.18243,-0.09114 0.32871,-0.438686 0.208558,-0.837726 -0.01352,-1.06512 z m -2.149988,4.286457 c -0.144761,0.242887 -0.383548,0.343141 -0.747651,0.316255 -0.344964,-0.02506 -0.459039,-0.172254 -0.514938,-0.280711 -0.0078,-0.01504 -0.01201,-0.03296 -0.01868,-0.04891 -0.06,-0.144456 -0.07625,-0.326736 -0.05894,-0.534079 0.01185,-0.143241 0.03797,-0.296812 0.07747,-0.458433 0.06334,-0.258685 0.15752,-0.534383 0.266129,-0.807954 0.08096,-0.203698 0.169521,-0.405572 0.260508,-0.598637 0.122886,-0.260811 0.248812,-0.504914 0.362432,-0.711802 l 0.0123,0.0123 c 0.171191,0.421978 0.350282,0.996462 0.449017,1.555149 0.108608,0.614586 0.119848,1.20897 -0.08765,1.55682 z m -4.275063,-3.211007 c -0.02035,-0.279648 0.03524,-0.486079 0.170278,-0.631295 0.17423,-0.187292 0.489116,-0.28223 0.935701,-0.28223 0.248053,0 0.516308,0.03038 0.786234,0.07929 0.564459,0.102533 1.134692,0.287243 1.53844,0.450383 l 0.0085,0.0085 c -0.189116,0.103592 -0.435954,0.232707 -0.711346,0.362885 -0.188965,0.08947 -0.391294,0.178937 -0.598183,0.261115 -0.269771,0.107393 -0.546383,0.20066 -0.809775,0.264154 -0.178028,0.04284 -0.34937,0.07124 -0.508712,0.08035 -0.036,0.0021 -0.07276,0.0047 -0.107395,0.0047 -0.174077,0 -0.312303,-0.02537 -0.418785,-0.07914 -0.176659,-0.08932 -0.265827,-0.257167 -0.284964,-0.518738 z m 3.070042,0.329622 0.125317,0.125317 c -0.08992,0.183495 -0.18152,0.382939 -0.268557,0.590738 l -0.447648,-0.447648 c 0.207647,-0.08719 0.407545,-0.178938 0.590888,-0.268407 z m -1.379249,0.553978 0.951955,0.952107 c -0.07094,0.241824 -0.124709,0.481826 -0.150228,0.708916 L 28.762574,79.55965 c 0.225266,-0.02613 0.464661,-0.08035 0.707091,-0.152355 z m -0.332052,2.460775 -1.245272,-1.245274 c 0.02749,-0.212356 0.0837,-0.441572 0.180761,-0.678536 l 1.760061,1.760062 c -0.240459,0.08992 -0.474536,0.140811 -0.69555,0.163748 z m 3.219818,-3.200526 c -0.02826,0.07398 -0.05681,0.145975 -0.08567,0.216609 -0.119544,-0.349977 -0.241975,-0.640713 -0.330838,-0.818436 -0.01124,-0.04253 -0.03402,-0.08066 -0.06653,-0.110431 -0.02962,-0.03251 -0.0682,-0.05529 -0.110887,-0.06638 -0.180456,-0.09129 -0.444153,-0.202482 -0.755549,-0.311242 0.01032,-0.0038 0.02021,-0.0081 0.03053,-0.01185 l 0.04709,-0.01762 c 0.188206,-0.07063 0.503092,-0.18866 0.785169,-0.18866 0.186534,0 0.327496,0.05028 0.431094,0.153875 0.237723,0.237875 0.256558,0.62613 0.05559,1.154135 z"
       inkscape:connector-curvature="0"
       style="fill:#3f281e;fill-opacity:1;stroke-width:0.15189967" />
    <path
       id="path6744-50"
       d="m 58.391816,101.36887 c -0.315193,-0.32279 -0.96107,-0.4434 -1.497428,-0.1639 -0.02689,-0.0339 -0.05438,-0.0652 -0.08248,-0.0931 -0.02992,-0.0299 -0.06182,-0.0567 -0.09494,-0.0819 0.275394,-0.54259 0.124558,-1.219452 -0.227544,-1.563505 -0.310637,-0.303344 -0.731245,-0.321116 -1.09778,-0.04633 -0.100558,0.07549 -0.121063,0.218431 -0.04557,0.319141 0.07564,0.100709 0.218432,0.120912 0.31914,0.04557 0.189421,-0.142482 0.354989,-0.139596 0.505674,0.0077 0.229672,0.224354 0.317016,0.701324 0.124558,1.053574 -0.07489,-0.014 -0.153723,-0.0216 -0.236963,-0.0216 -0.364712,0 -0.728208,0.13626 -0.945272,0.21783 l -0.04557,0.017 c -0.1958,0.0726 -0.382939,0.14886 -0.562486,0.22876 -0.471799,-0.12335 -0.978537,-0.21297 -1.432565,-0.21297 -0.578435,0 -1.005424,0.14385 -1.269272,0.4276 -0.222838,0.2397 -0.320813,0.5675 -0.291193,0.97474 0.02992,0.40952 0.200811,0.70436 0.494131,0.86872 -0.05271,0.0952 -0.10223,0.19184 -0.145066,0.29073 -0.526788,1.21717 -0.100557,2.25632 -0.08218,2.30022 l 0.03524,0.0839 0.08339,0.0365 c 0.019,0.008 0.471649,0.20263 1.128461,0.20263 0.463447,0 0.996768,-0.0933 1.540415,-0.37747 0.0027,0.006 0.0045,0.0114 0.0074,0.0169 0.112559,0.21889 0.357875,0.48821 0.886944,0.52679 0.04785,0.003 0.09418,0.005 0.138986,0.005 0.464206,0 0.821475,-0.1876 1.033221,-0.54243 0.352565,-0.59104 0.245629,-1.56335 0.02781,-2.41201 0.107241,-0.22466 0.210987,-0.46588 0.310179,-0.72639 0.186227,-0.48912 0.19671,-0.85823 0.125468,-1.13499 0.351192,-0.18912 0.776055,-0.12578 0.969423,0.072 0.123648,0.12653 0.115292,0.28572 -0.02521,0.47271 -0.07549,0.10071 -0.05499,0.24365 0.04557,0.31914 0.04117,0.0307 0.08901,0.0456 0.136559,0.0456 0.06927,0 0.137621,-0.0314 0.182431,-0.0911 0.32871,-0.43869 0.208558,-0.83773 -0.01352,-1.06512 z m -2.149988,4.28645 c -0.144762,0.24289 -0.383548,0.34315 -0.747652,0.31626 -0.344964,-0.0251 -0.459039,-0.17225 -0.514937,-0.28071 -0.0078,-0.015 -0.01201,-0.033 -0.01868,-0.0489 -0.06,-0.14446 -0.07625,-0.32674 -0.05894,-0.53408 0.01185,-0.14324 0.03797,-0.29681 0.07747,-0.45843 0.06334,-0.25869 0.157519,-0.53439 0.266128,-0.80796 0.08096,-0.20369 0.169521,-0.40557 0.260509,-0.59863 0.122886,-0.26082 0.248811,-0.50492 0.362431,-0.71181 l 0.0123,0.0123 c 0.171191,0.42198 0.350282,0.99647 0.449017,1.55515 0.108609,0.61459 0.119848,1.20897 -0.08765,1.55682 z m -4.275063,-3.211 c -0.02035,-0.27965 0.03524,-0.48608 0.170277,-0.6313 0.174231,-0.18729 0.489117,-0.28223 0.935702,-0.28223 0.248052,0 0.516308,0.0304 0.786233,0.0793 0.56446,0.10254 1.134692,0.28725 1.538441,0.45039 l 0.0085,0.008 c -0.189117,0.10359 -0.435954,0.2327 -0.711346,0.36288 -0.188965,0.0895 -0.391295,0.17894 -0.598183,0.26112 -0.269772,0.10739 -0.546383,0.20066 -0.809776,0.26415 -0.178027,0.0428 -0.349369,0.0712 -0.508712,0.0804 -0.036,0.002 -0.07276,0.005 -0.107394,0.005 -0.174077,0 -0.312304,-0.0254 -0.418785,-0.0791 -0.17666,-0.0893 -0.265827,-0.25717 -0.284964,-0.51874 z m 3.070042,0.32962 0.125317,0.12532 c -0.08992,0.18349 -0.18152,0.38294 -0.268557,0.59073 l -0.447649,-0.44764 c 0.207648,-0.0872 0.407546,-0.17894 0.590889,-0.26841 z m -1.379249,0.55398 0.951955,0.95211 c -0.07094,0.24182 -0.124709,0.48182 -0.150228,0.70891 l -1.508818,-1.50867 c 0.225266,-0.0261 0.464661,-0.0804 0.707091,-0.15235 z m -0.332052,2.46077 -1.245272,-1.24527 c 0.02749,-0.21236 0.0837,-0.44157 0.18076,-0.67854 l 1.760062,1.76006 c -0.240459,0.0899 -0.474536,0.14082 -0.69555,0.16375 z m 3.219817,-3.20052 c -0.02825,0.074 -0.05681,0.14597 -0.08567,0.21661 -0.119544,-0.34998 -0.241974,-0.64072 -0.330837,-0.81844 -0.01124,-0.0425 -0.03403,-0.0807 -0.06653,-0.11043 -0.02962,-0.0325 -0.0682,-0.0553 -0.110887,-0.0664 -0.180457,-0.0913 -0.444154,-0.20248 -0.75555,-0.31124 0.01032,-0.004 0.02021,-0.008 0.03053,-0.0118 l 0.04709,-0.0176 c 0.188206,-0.0706 0.503092,-0.18866 0.78517,-0.18866 0.186534,0 0.327496,0.0503 0.431093,0.15387 0.237723,0.23788 0.256559,0.62613 0.05559,1.15414 z"
       inkscape:connector-curvature="0"
       style="fill:#3f281e;fill-opacity:1;stroke-width:0.15189967" />
  </g>
</svg>
