<?xml version="1.0" encoding="UTF-8" standalone="no"?>
<!-- Created with Inkscape (http://www.inkscape.org/) -->

<svg
   xmlns:dc="http://purl.org/dc/elements/1.1/"
   xmlns:cc="http://creativecommons.org/ns#"
   xmlns:rdf="http://www.w3.org/1999/02/22-rdf-syntax-ns#"
   xmlns:svg="http://www.w3.org/2000/svg"
   xmlns="http://www.w3.org/2000/svg"
   xmlns:sodipodi="http://sodipodi.sourceforge.net/DTD/sodipodi-0.dtd"
   xmlns:inkscape="http://www.inkscape.org/namespaces/inkscape"
   width="225.36543mm"
   height="79.96035mm"
   viewBox="0 0 270.43852 95.952417"
   version="1.1"
   id="svg6732"
   inkscape:version="0.92.1 r15371"
   sodipodi:docname="BEICAVIE.svg">
  <defs
     id="defs6726" />
  <sodipodi:namedview
     id="base"
     pagecolor="#ffffff"
     bordercolor="#666666"
     borderopacity="1.0"
     inkscape:pageopacity="0.0"
     inkscape:pageshadow="2"
     inkscape:zoom="1"
     inkscape:cx="142.87505"
     inkscape:cy="27.305565"
     inkscape:document-units="mm"
     inkscape:current-layer="text7333"
     showgrid="false"
     scale-x="1.2"
     fit-margin-top="20"
     fit-margin-left="20"
     fit-margin-right="20"
     fit-margin-bottom="20"
     inkscape:window-width="1600"
     inkscape:window-height="878"
     inkscape:window-x="-8"
     inkscape:window-y="-8"
     inkscape:window-maximized="1" />
  <metadata
     id="metadata6729">
    <rdf:RDF>
      <cc:Work
         rdf:about="">
        <dc:format>image/svg+xml</dc:format>
        <dc:type
           rdf:resource="http://purl.org/dc/dcmitype/StillImage" />
        <dc:title />
      </cc:Work>
    </rdf:RDF>
  </metadata>
  <g
     inkscape:label="Livello 1"
     inkscape:groupmode="layer"
     id="layer1"
     transform="translate(13.572345,51.013006)">
    <g
       aria-label="Beicavie"
       style="font-style:normal;font-variant:normal;font-weight:normal;font-stretch:normal;font-size:60.95999908px;line-height:1.25;font-family:'Futura Md BT';-inkscape-font-specification:'Futura Md BT';letter-spacing:0px;word-spacing:0px;fill:#000000;fill-opacity:1;stroke:none;stroke-width:0.0840052"
       id="text7333">
      <path
         style="font-style:normal;font-variant:normal;font-weight:500;font-stretch:normal;font-family:Futura;-inkscape-font-specification:'Futura Medium';stroke-width:0.26458329;fill:#007891;fill-opacity:1;opacity:1"
         d="M 75.589844 75.589844 L 75.589844 132.40234 L 75.591797 132.40234 A 10.920945 10.920944 0 0 0 75.589844 132.4375 A 10.920945 10.920944 0 0 0 86.511719 143.35938 A 10.920945 10.920944 0 0 0 97.431641 132.4375 A 10.920945 10.920944 0 0 0 97.429688 132.40234 L 97.433594 132.40234 L 97.433594 95.652344 L 105.12109 95.652344 C 112.49609 95.652344 118.12109 97.433597 121.99609 100.99609 C 125.8711 104.49609 127.80859 109.65234 127.80859 116.46484 C 127.80859 123.46484 125.90265 128.77767 122.08984 132.40234 C 118.32244 135.94686 112.72707 136.28608 110.49414 142.28906 C 109.29029 145.96333 109.3598 149.47162 112.19141 153 C 115.56284 157.20105 127.32917 156.63944 132.96484 162.30859 C 137.42567 166.79593 139.99609 171.80859 139.99609 178.05859 C 139.99609 184.49609 137.5586 189.80859 132.68359 193.99609 C 128.0586 197.8711 120.8086 199.80859 110.93359 199.80859 L 97.433594 199.80859 L 97.433594 162.30859 L 97.431641 162.30859 A 10.920945 10.920944 0 0 0 97.431641 162.29688 A 10.920945 10.920944 0 0 0 86.511719 151.375 A 10.920945 10.920944 0 0 0 75.589844 162.29688 A 10.920945 10.920944 0 0 0 75.589844 162.30859 L 75.589844 220.33984 L 108.68359 220.33984 C 118.5586 220.33984 126.77734 219.43359 133.33984 217.62109 C 139.33984 215.74609 144.74609 212.40234 149.55859 207.58984 C 157.55859 199.77734 161.55859 190.21484 161.55859 178.90234 C 161.55859 170.27734 159.30859 162.71484 154.80859 156.21484 C 150.37109 149.65234 144.30859 145.05859 136.62109 142.43359 C 144.5586 135.24609 148.52734 126.46485 148.52734 116.08984 C 148.52734 110.40234 147.3086 104.77734 144.87109 99.214844 C 142.4961 93.714844 139.27734 89.121093 135.21484 85.433594 C 131.21484 81.871096 126.30859 79.339844 120.49609 77.839844 C 114.74609 76.339844 107.02734 75.589844 97.339844 75.589844 L 75.589844 75.589844 z "
         transform="matrix(0.3175,0,0,0.3175,-13.572345,-51.013006)"
         id="path7337" />
      <path
         d="M 71.625777,6.0268369 H 50.849371 q 0.267891,3.5718749 2.321719,5.6852341 2.053828,2.083594 5.268516,2.083594 2.500312,0 4.137421,-1.190625 1.607344,-1.190625 3.661172,-4.4053125 l 5.655469,3.1551565 q -1.309688,2.232422 -2.768203,3.839765 -1.458516,1.577578 -3.125391,2.619375 -1.666875,1.012031 -3.60164,1.488281 -1.934766,0.47625 -4.196953,0.47625 -6.488906,0 -10.417969,-4.167187 -3.929062,-4.196953 -3.929062,-11.1323436 0,-6.8758593 3.81,-11.1323436 3.839765,-4.1969528 10.179843,-4.1969528 6.399609,0 10.120313,4.0778903 3.690937,4.048125 3.690937,11.2216405 z M 64.749918,0.54996198 q -1.398984,-5.35781238 -6.756797,-5.35781238 -1.22039,0 -2.291953,0.3869531 -1.071562,0.3571875 -1.964531,1.0715625 -0.863203,0.6846093 -1.488281,1.6668749 -0.625078,0.98226565 -0.9525,2.23242188 z"
         style="font-style:normal;font-variant:normal;font-weight:500;font-stretch:normal;font-family:Futura;-inkscape-font-specification:'Futura Medium';stroke-width:0.0840052;fill:#007891;fill-opacity:1;opacity:1"
         id="path7339" />
      <path
         style="font-style:normal;font-variant:normal;font-weight:500;font-stretch:normal;font-family:Futura;-inkscape-font-specification:'Futura Medium';stroke-width:0.0840052;fill:#007891;fill-opacity:1;opacity:1"
         d="M 85.615621,-10.0466 V 18.945118 H 78.918355 V -10.0466 Z"
         id="path7410" />
      <path
         style="font-style:normal;font-variant:normal;font-weight:500;font-stretch:normal;font-family:Futura;-inkscape-font-specification:'Futura Medium';opacity:1;fill:#007891;fill-opacity:1;stroke-width:0.0840052"
         d="m 77.906324,-19.392698 c 0,-1.170781 0.426641,-2.182813 1.279922,-3.036094 0.853281,-0.853281 1.875585,-1.279922 3.06621,-1.279922 1.210468,0 -0.853282,3.492225 0,4.345507 0.853281,0.833437 4.375196,-1.210469 4.375196,0 0,1.210468 -0.426641,2.242618 -1.279922,3.095899 -0.833437,0.853281 -1.85539,1.279922 -3.065859,1.279922 -1.210469,0 -2.242344,-0.426641 -3.095625,-1.279922 -0.853281,-0.853281 -1.279922,-1.895078 -1.279922,-3.12539 z"
         id="path7341"
         inkscape:connector-curvature="0"
         sodipodi:nodetypes="ssscscsss" />
      <path
         d="m 116.7207,-8.7964441 v 8.89992171 q -2.29196,-2.79796871 -4.10766,-3.83976561 -1.78594,-1.0715624 -4.19695,-1.0715624 -3.78024,0 -6.28055,2.6491405 -2.500312,2.64914063 -2.500312,6.6377343 0,4.0778906 2.411012,6.6972656 2.44078,2.619375 6.22102,2.619375 2.41101,0 4.25648,-1.041797 1.78594,-1.012031 4.19696,-3.9290624 v 8.8403904 q -4.07789,2.113359 -8.15578,2.113359 -6.72704,0 -11.251411,-4.345781 -4.524375,-4.375547 -4.524375,-10.8644527 0,-6.4889062 4.583907,-10.9537498 4.583909,-4.4648435 11.251409,-4.4648435 4.28625,0 8.09625,2.0538279 z"
         style="font-style:normal;font-variant:normal;font-weight:500;font-stretch:normal;font-family:Futura;-inkscape-font-specification:'Futura Medium';stroke-width:0.0840052;fill:#007891;fill-opacity:1;opacity:1"
         id="path7343" />
      <path
         d="m 144.58133,-10.0466 h 6.72703 v 28.991718 h -6.72703 v -3.036094 q -4.13743,3.869531 -8.89993,3.869531 -6.01265,0 -9.94171,-4.345781 -3.8993,-4.435078 -3.8993,-11.0728121 0,-6.5186718 3.8993,-10.8644529 3.89929,-4.345781 9.76312,-4.345781 5.06016,0 9.07852,4.1671872 z M 128.68648,4.3599619 q 0,4.1671875 2.23242,6.7865621 2.29196,2.649141 5.77454,2.649141 3.7207,0 6.01265,-2.559844 2.29195,-2.6491404 2.29195,-6.727031 0,-4.07789052 -2.29195,-6.7270311 -2.29195,-2.5896093 -5.95312,-2.5896093 -3.45282,0 -5.77453,2.6193749 -2.29196,2.6491406 -2.29196,6.5484374 z"
         style="font-style:normal;font-variant:normal;font-weight:500;font-stretch:normal;font-family:Futura;-inkscape-font-specification:'Futura Medium';stroke-width:0.0840052;fill:#007891;fill-opacity:1;opacity:1"
         id="path7345" />
      <path
         d="m 163.95874,-10.0466 7.50094,16.2817963 7.47117,-16.2817963 h 7.5307 L 171.40015,20.939415 156.4578,-10.0466 Z"
         style="font-style:normal;font-variant:normal;font-weight:500;font-stretch:normal;font-family:Futura;-inkscape-font-specification:'Futura Medium';stroke-width:0.0840052;fill:#d4aa00"
         id="path7347" />
      <path
         style="font-style:normal;font-variant:normal;font-weight:500;font-stretch:normal;font-family:Futura;-inkscape-font-specification:'Futura Medium';stroke-width:0.0840052;fill:#d4aa00"
         d="m 197.65344,-10.0466 v 28.991718 h -6.69727 V -10.0466 Z"
         id="path7414" />
      <path
         style="font-style:normal;font-variant:normal;font-weight:500;font-stretch:normal;font-family:Futura;-inkscape-font-specification:'Futura Medium';fill:#d4aa00;stroke-width:0.0840052"
         d="m 189.94414,-19.392698 c 0,-1.170781 0.42664,-2.182813 1.27992,-3.036094 0.85329,-0.853281 1.87578,-1.279922 3.0664,-1.279922 1.21047,0 -0.85328,3.492225 0,4.345507 0.85328,0.833437 4.37501,-1.210469 4.37501,0 0,1.210468 -0.42664,2.242618 -1.27992,3.095899 -0.83344,0.853281 -1.85539,1.279922 -3.06586,1.279922 -1.21047,0 -2.24234,-0.426641 -3.09563,-1.279922 -0.85328,-0.853281 -1.27992,-1.895078 -1.27992,-3.12539 z"
         id="path7349"
         inkscape:connector-curvature="0"
         sodipodi:nodetypes="scscscscs" />
      <path
         d="m 232.59827,6.0268369 h -20.7764 q 0.26789,3.5718749 2.32172,5.6852341 2.05382,2.083594 5.26851,2.083594 2.50031,0 4.13742,-1.190625 1.60735,-1.190625 3.66118,-4.4053125 l 5.65546,3.1551565 q -1.30968,2.232422 -2.7682,3.839765 -1.45851,1.577578 -3.12539,2.619375 -1.66687,1.012031 -3.60164,1.488281 -1.93477,0.47625 -4.19695,0.47625 -6.48891,0 -10.41797,-4.167187 -3.92906,-4.196953 -3.92906,-11.1323436 0,-6.8758593 3.81,-11.1323436 3.83976,-4.1969528 10.17984,-4.1969528 6.39961,0 10.12031,4.0778903 3.69094,4.048125 3.69094,11.2216405 z m -6.87586,-5.47687492 q -1.39898,-5.35781238 -6.75679,-5.35781238 -1.22039,0 -2.29196,0.3869531 -1.07156,0.3571875 -1.96453,1.0715625 -0.8632,0.6846093 -1.48828,1.6668749 -0.62508,0.98226565 -0.9525,2.23242188 z"
         style="font-style:normal;font-variant:normal;font-weight:500;font-stretch:normal;font-family:Futura;-inkscape-font-specification:'Futura Medium';stroke-width:0.0840052;fill:#d4aa00"
         id="path7351" />
    </g>
  </g>
</svg>
